<?xml version="1.0" encoding="UTF-8" standalone="no"?>
<!DOCTYPE svg PUBLIC "-//W3C//DTD SVG 1.1//EN" "http://www.w3.org/Graphics/SVG/1.1/DTD/svg11.dtd">
<svg width="100%" height="100%" viewBox="0 0 512 512" version="1.1" xmlns="http://www.w3.org/2000/svg" xmlns:xlink="http://www.w3.org/1999/xlink" xml:space="preserve" xmlns:serif="http://www.serif.com/" style="fill-rule:evenodd;clip-rule:evenodd;stroke-linecap:round;stroke-linejoin:round;stroke-miterlimit:1.5;">
    <rect id="gamepad" x="0" y="0" width="512" height="512" style="fill:none;"/>
    <g id="gamepad1" serif:id="gamepad">
        <circle id="background" cx="256" cy="256" r="242.294"/>
        <g>
            <path id="pad" d="M196.858,300.672c-28.254,0 -30.236,59.044 -58.491,59.044c-33.376,0 -27.233,-64.485 -22.421,-82.362c4.812,-17.878 14.954,-101.517 44.606,-111.955c29.563,-10.406 95.055,-6.529 95.448,-6.505c0.393,-0.024 65.885,-3.901 95.448,6.505c29.652,10.438 39.794,94.077 44.606,111.955c4.812,17.877 10.955,82.362 -22.421,82.362c-28.255,0 -30.237,-59.044 -58.491,-59.044l-118.284,0Z" style="fill:none;stroke:white;stroke-width:1px;"/>
            <path id="ZR" d="M317.616,159.38l4.047,-6.02c-0,-0 -4.073,-2.65 18.416,0.367c22.488,3.017 28.38,27.913 28.38,27.913l-0,-0" style="fill:none;stroke:white;stroke-width:2px;"/>
            <path id="ZL" d="M143.541,181.64l0,-0c0,-0 5.892,-24.896 28.38,-27.913c22.489,-3.017 18.416,-0.367 18.416,-0.367l4.047,6.02" style="fill:none;stroke:white;stroke-width:2px;"/>
            <ellipse id="L" cx="179.62" cy="206.445" rx="16.543" ry="17.384" style="fill:none;stroke:white;stroke-width:2px;"/>
            <ellipse id="LBACK" cx="179.62" cy="206.445" rx="20.519" ry="21.562" style="fill:none;stroke:white;stroke-width:2px;"/>
            <ellipse id="R" cx="296.026" cy="257.957" rx="16.543" ry="17.384" style="fill:none;stroke:white;stroke-width:2px;"/>
            <ellipse id="RBACK" cx="296.026" cy="257.957" rx="20.866" ry="21.926" style="fill:none;stroke:white;stroke-width:2px;"/>
            <ellipse id="X" cx="314.349" cy="210.783" rx="10.051" ry="10.562" style="fill:none;stroke:white;stroke-width:2px;"/>
            <ellipse id="B" cx="354.026" cy="210.783" rx="10.051" ry="10.562" style="fill:none;stroke:white;stroke-width:2px;"/>
            <ellipse id="Y" cx="333.692" cy="189.557" rx="10.051" ry="10.562" style="fill:none;stroke:white;stroke-width:2px;"/>
            <ellipse id="A" cx="333.692" cy="232.769" rx="10.051" ry="10.562" style="fill:none;stroke:white;stroke-width:2px;"/>
            <path id="D" d="M209.644,248.319c0.164,-0.502 0.262,-1.105 0.262,-1.826c0,-4.405 0.084,-10.877 0.084,-10.877c-0,-0 1.778,-1.926 6.965,-1.926c5.186,-0 7.98,2.884 7.98,2.884l-0,11.422c-0,0 -0.001,0.013 0,0.036c0.146,0.87 0.671,2.471 2.549,3.046c0.182,0.029 0.376,0.048 0.585,0.053l0.124,0.001c-0.042,0 -0.083,-0 -0.124,-0.001l-0.419,-0.006c0.401,0.106 0.86,0.166 1.385,0.166c4.191,-0 10.351,0.088 10.351,0.088c0,-0 1.833,1.868 1.833,7.318c-0,5.451 -2.745,8.386 -2.745,8.386l-10.87,-0c0,-0 -0.838,-0.008 -1.626,0.498c-0.272,0.19 -0.537,0.433 -0.772,0.744c-0.33,0.477 -0.565,1.138 -0.585,2.052l-0.001,0.129c-0,-0.044 0,-0.087 0.001,-0.129l0.011,-0.928c-0.164,0.503 -0.262,1.105 -0.262,1.827c-0,4.404 -0.084,10.877 -0.084,10.877c0,0 -1.778,1.926 -6.965,1.926c-5.186,-0 -7.98,-2.884 -7.98,-2.884l0,-11.422c0,-0 0.001,-0.013 -0,-0.036c-0.146,-0.87 -0.671,-2.471 -2.549,-3.046c-0.182,-0.03 -0.376,-0.048 -0.585,-0.053l-0.124,-0.001c0.042,-0 0.083,0 0.124,0.001l0.418,0.005c-0.4,-0.105 -0.859,-0.165 -1.384,-0.165c-4.191,-0 -10.351,-0.088 -10.351,-0.088c-0,-0 -1.833,-1.868 -1.833,-7.319c0,-5.45 2.745,-8.385 2.745,-8.385l10.87,0c-0,0 0.838,0.008 1.626,-0.498c0.272,-0.19 0.537,-0.433 0.772,-0.744c0.33,-0.478 0.565,-1.138 0.585,-2.052l0.001,-0.13c0,0.044 -0,0.088 -0.001,0.13l-0.011,0.927Z" style="fill:none;stroke:white;stroke-width:2px;"/>
            <ellipse id="select" cx="230.31" cy="196.475" rx="6.624" ry="6.96" style="fill:none;stroke:white;stroke-width:2px;"/>
            <ellipse id="start" cx="280.899" cy="196.475" rx="6.624" ry="6.96" style="fill:none;stroke:white;stroke-width:2px;"/>
        </g>
    </g>
</svg>
