<?xml version="1.0" encoding="UTF-8" standalone="no"?>
<!DOCTYPE svg PUBLIC "-//W3C//DTD SVG 1.1//EN" "http://www.w3.org/Graphics/SVG/1.1/DTD/svg11.dtd">
<svg width="100%" height="100%" viewBox="0 0 513 512" version="1.1" xmlns="http://www.w3.org/2000/svg" xmlns:xlink="http://www.w3.org/1999/xlink" xml:space="preserve" xmlns:serif="http://www.serif.com/" style="fill-rule:evenodd;clip-rule:evenodd;stroke-linejoin:round;stroke-miterlimit:2;">
    <rect id="lighthouse" x="0.91" y="0" width="512" height="512" style="fill:none;"/>
    <circle cx="256.91" cy="256" r="242.294" style="fill:rgb(62,208,255);"/>
    <clipPath id="_clip1">
        <circle cx="256.91" cy="256" r="242.294"/>
    </clipPath>
    <g clip-path="url(#_clip1)">
        <rect id="wrapper" x="-19.916" y="-36.237" width="575.5" height="585.016" style="fill:rgb(62,208,255);"/>
        <rect id="background" x="-19.916" y="-36.237" width="575.5" height="585.016" style="fill:rgb(62,208,255);"/>
        <path id="top" d="M283.638,99.311l-2.62,0l-0,-4.087l36.849,-0l0,4.087l-2.62,0l-0,37.54l-31.609,0l0,-37.54Z"/>
        <clipPath id="_clip2">
            <path d="M283.638,99.311l-2.62,0l-0,-4.087l36.849,-0l0,4.087l-2.62,0l-0,37.54l-31.609,0l0,-37.54Z"/>
        </clipPath>
        <g clip-path="url(#_clip2)">
            <ellipse id="lamp" cx="299.276" cy="112.74" rx="9.329" ry="9.511" style="fill:white;"/>
        </g>
        <path id="railing" d="M275.184,118.334l-2.517,0l-0,-1.824l52.787,-0l-0,1.824l-3.439,0l-0,16.574l-1.825,0l0,-16.574l-2.923,0l-0,16.574l-1.825,0l0,-16.574l-2.573,0l-0,16.574l-1.825,0l-0,-16.574l-2.465,0l0,16.574l-1.825,0l0,-16.574l-2.923,0l0,16.574l-1.825,0l0,-16.574l-2.524,0l0,16.574l-1.824,0l-0,-16.574l-2.465,0l-0,16.574l-1.825,0l0,-16.574l-2.923,0l-0,16.574l-1.825,0l0,-16.574l-2.573,0l-0,16.574l-1.825,0l-0,-16.574l-2.465,0l0,16.574l-1.825,0l0,-16.574l-2.923,0l0,16.574l-1.825,0l0,-16.574Z"/>
        <path id="rocks" d="M97.098,488.749c13.121,-39.823 34.541,-94.959 51.656,-91.623c26.631,5.192 35.092,10.511 35.092,10.511l3.02,-41.189l19.761,14.078c0,0 -16.993,-15.337 3.751,-20.053c20.744,-4.716 55.068,-24.975 55.068,-24.975c0,-0 18.84,-26.109 27.695,-14.691c8.855,11.418 54.152,23.152 54.152,23.152l45.95,-7.387c0,-0 5.109,16.098 7.499,47.239c2.389,31.141 18.716,39.533 18.716,39.533l18.227,36.547l0.381,7.633c-44.404,49.966 -109.131,81.461 -181.156,81.461c-61.206,-0 -117.142,-22.744 -159.812,-60.236Z"/>
        <path id="shading" d="M140.427,399.591c2.851,-2.072 5.642,-2.988 8.327,-2.465c26.631,5.192 35.092,10.511 35.092,10.511l0.69,-9.412l1.083,1.596l22.729,24.804l-20.074,19.34l-42.632,-42.225l-5.215,-2.149Zm136.923,-76.882l-0.189,15.99l8.572,13.99l23.434,19.14l-71.719,-10.401l-22.675,7.414l-8.917,17.807l-12.46,-2.009l-7.652,-2.884l1.122,-15.308l19.761,14.078c0,0 -16.993,-15.337 3.751,-20.053c20.744,-4.716 55.068,-24.975 55.068,-24.975c0,-0 5.472,-7.583 11.904,-12.789Zm60.915,18.705c5.4,1.606 9.028,2.545 9.028,2.545l45.95,-7.387c0,-0 0.07,0.219 0.196,0.655l-42.291,30.13l-12.883,-25.943Z" style="fill:rgb(150,255,255);"/>
        <path id="house" d="M325.339,127.529l9.43,231.641l-31.358,6.539l-0,1.792l-4.297,-0.896l-4.296,0.896l-0,-1.792l-31.359,-6.539l9.43,-231.641l52.45,-0Z"/>
        <path id="light" d="M300.8,102.848l-0,20.465l419.365,450.201c-0,-0 42.021,-66 89.073,-139.902c76.853,-120.706 70.523,-276.478 -15.87,-390.55c-40.233,-53.123 -73.203,-96.657 -73.203,-96.657l-419.365,156.443Z" style="fill:rgb(229,255,128);fill-opacity:0.59;"/>
    </g>
</svg>
