<?xml version="1.0" encoding="UTF-8" standalone="no"?>
<!DOCTYPE svg PUBLIC "-//W3C//DTD SVG 1.1//EN" "http://www.w3.org/Graphics/SVG/1.1/DTD/svg11.dtd">
<svg width="100%" height="100%" viewBox="0 0 513 512" version="1.1" xmlns="http://www.w3.org/2000/svg" xmlns:xlink="http://www.w3.org/1999/xlink" xml:space="preserve" xmlns:serif="http://www.serif.com/" style="fill-rule:evenodd;clip-rule:evenodd;stroke-linecap:round;stroke-linejoin:round;stroke-miterlimit:1.5;">
    <rect id="modernweb" x="0.16" y="0" width="512" height="512" style="fill:none;"/>
    <circle cx="262.617" cy="256" r="242.294" style="fill:none;"/>
    <clipPath id="_clip1">
        <circle cx="262.617" cy="256" r="242.294"/>
    </clipPath>
    <g clip-path="url(#_clip1)">
        <rect id="background" x="-14.209" y="-36.237" width="575.5" height="585.016" style="fill:rgb(62,208,255);"/>
        <g id="web">
            <path d="M126.601,90.565l254.281,19.484l44.764,218.481l-108.725,131.869l-225.974,-94.017l35.654,-275.817Z" style="fill:none;stroke:black;stroke-width:6.5px;"/>
            <path d="M203.069,127.439l167.443,58.906l-9.263,154.948l-96.851,69.069l-134.985,-103.915l73.656,-179.008Z" style="fill:none;stroke:black;stroke-width:4px;"/>
            <path d="M353.023,308.376l-105.481,50.58l-67.891,-76.525l12.946,-77.321l111.331,-14.479l49.095,117.745Z" style="fill:none;stroke:black;stroke-width:6.5px;"/>
            <path d="M285.451,232.23l8.83,47.095l-37.474,18.748l-29.219,-13.319l6.074,-45.582l51.789,-6.942Z" style="fill:none;stroke:black;stroke-width:4.5px;"/>
            <path d="M75.217,66.466l130.431,61.699l-11.639,76.854l42.919,34.395l56.91,37.77" style="fill:none;stroke:black;stroke-width:4px;"/>
            <path d="M344.199,486.862l-26.614,-28.474l-55.356,-50.886l87.922,-98.53l-56.661,-32.755" style="fill:none;stroke:black;stroke-width:6.5px;"/>
            <path d="M38.964,376.376l51.307,-9.974l37.568,-61.554l49.383,-23.293l52.284,0.364l56.626,-46.994" style="fill:none;stroke:black;stroke-width:6.5px;"/>
            <path d="M416.217,66.622l-33.683,43.824l-12.591,73.408l-67.064,7.84l-19.125,42.154" style="fill:none;stroke:black;stroke-width:6.5px;"/>
            <path d="M513.375,355.759l-84.239,-27.768l-67.2,13.18l-10.464,-32.652" style="fill:none;stroke:black;stroke-width:4px;"/>
            <path d="M246.671,357.759l11.118,-60.679" style="fill:none;stroke:black;stroke-width:6.5px;"/>
        </g>
        <path id="cutout" d="M561.291,-36.237l-575.5,-0l0,585.015l575.5,0l0,-585.015Zm-180.066,143.054l32.415,-42.175c1.093,-1.422 3.135,-1.69 4.558,-0.596c1.422,1.093 1.689,3.135 0.596,4.557l-33.192,43.186l-0.477,2.776l43.338,211.52l0.289,-0.056c0.336,-0.066 0.685,-0.044 1.011,0.063l84.238,27.768c1.048,0.345 1.619,1.477 1.273,2.525c-0.345,1.049 -1.477,1.619 -2.525,1.274l-83.741,-27.604l-0.552,0.108c-0.088,0.152 -0.189,0.297 -0.302,0.435l-105.718,128.221l24.137,25.824c1.225,1.311 1.156,3.369 -0.155,4.594c-1.31,1.225 -3.369,1.155 -4.593,-0.155l-23.916,-25.587c-0.716,0.228 -1.507,0.208 -2.237,-0.095l-225.252,-93.717l-50.836,9.883c-1.761,0.342 -3.468,-0.809 -3.811,-2.57c-0.342,-1.761 0.81,-3.468 2.571,-3.811l49.695,-9.66l35.179,-272.14l-48.856,-23.111c-0.998,-0.472 -1.425,-1.665 -0.953,-2.663c0.472,-0.998 1.665,-1.425 2.663,-0.953l48.865,23.115c0.557,-0.332 1.219,-0.502 1.912,-0.448l254.282,19.483c0.031,0.003 0.062,0.006 0.094,0.009Zm37.249,225.304l-56.153,11.013c-0.085,0.017 -0.171,0.028 -0.256,0.033l-92.928,66.272l48.687,44.755l100.65,-122.073Zm-159.136,76.87l-130.118,-100.168l-34.053,55.795l211.193,87.867l-46.331,-42.59c-0.29,-0.266 -0.52,-0.573 -0.691,-0.904Zm-81.767,-124.007l-45.117,21.28l127.899,98.459l75.345,-84.435l-86.751,41.598c-1.308,0.627 -2.874,0.312 -3.836,-0.774l-67.54,-76.128Zm181.773,54.653l-8.508,-26.551l-81.415,91.237l89.889,-64.104l0.034,-0.582Zm-63.778,-58.465c-0.088,0.061 -0.181,0.116 -0.279,0.165l-34.469,17.245l-10.125,55.258l93.238,-44.709l-48.365,-27.959Zm-70.194,3.968l-39.216,-0.273l58.488,65.925l9.434,-51.49l-27.423,-12.501c-0.688,-0.314 -1.158,-0.943 -1.283,-1.661Zm-95.612,15.208l70.907,-172.327l-71.272,-33.714l-33.089,255.968l28.758,-47.12c0.331,-0.543 0.814,-0.976 1.388,-1.247l3.308,-1.56Zm252.342,-168.156l-8.956,52.212c-0.097,0.565 -0.338,1.078 -0.683,1.502c0.041,0.18 0.057,0.367 0.045,0.558l-9.109,152.382l58.685,-11.509l-39.982,-195.145Zm-14.588,55.218l-58.554,6.845l47.062,112.87c0.661,1.585 -0.025,3.408 -1.561,4.165l5.544,17.3l8.421,-140.859l-0.912,-0.321Zm-78.879,49.589l6.866,36.627l52.06,30.095l-44.031,-105.598l-15.499,34.164c0.219,0.157 0.421,0.345 0.602,0.562c1.014,1.222 0.981,2.97 0.002,4.15Zm-96.169,-35.149l10.397,-68.653l-67.736,164.62l40.709,-19.202c0.38,-0.179 0.791,-0.283 1.209,-0.305l12.347,-73.736c0.236,-1.411 1.367,-2.502 2.786,-2.687l0.288,-0.037Zm97.97,75.477l-27.953,-18.552l-30.654,25.439l23.519,10.721c0.729,-0.829 1.863,-1.265 3.027,-1.052c0.372,0.068 0.718,0.197 1.028,0.375l31.684,-15.851c-0.289,-0.318 -0.508,-0.686 -0.651,-1.08Zm-58.618,-39.445l-36.513,-29.262l-11.676,69.729l42.503,0.296l5.3,-39.77c0.048,-0.367 0.184,-0.705 0.386,-0.993Zm3.847,3.292l-4.706,35.315l25.868,-21.468l-20.914,-13.881l-0.248,0.034Zm30.032,14.933l25.06,16.632l-6.073,-32.39l-18.987,15.758Zm15.071,-20.979l-38.837,5.206l18.111,12.02l20.733,-17.208l-0.007,-0.018Zm-80.588,-27.727l36.335,29.118l45.207,-6.059l16.231,-35.775l-97.773,12.716Zm105.743,-19.335l47.628,-5.568l-146.314,-51.472l-10.644,70.287l106.915,-13.905c0.884,-0.115 1.747,0.138 2.415,0.658Zm-166.042,-93.224l66.622,31.515c0.193,0.091 0.366,0.211 0.516,0.352l155.579,54.732l4.552,-0.533l11.362,-66.236l-0.322,-1.57l-238.309,-18.26Z" style="fill:none;stroke:rgb(188,174,255);stroke-width:2px;"/>
    </g>
</svg>
