<?xml version="1.0" encoding="UTF-8" standalone="no"?>
<!DOCTYPE svg PUBLIC "-//W3C//DTD SVG 1.1//EN" "http://www.w3.org/Graphics/SVG/1.1/DTD/svg11.dtd">
<svg width="100%" height="100%" viewBox="0 0 513 512" version="1.1" xmlns="http://www.w3.org/2000/svg" xmlns:xlink="http://www.w3.org/1999/xlink" xml:space="preserve" xmlns:serif="http://www.serif.com/" style="fill-rule:evenodd;clip-rule:evenodd;stroke-linecap:round;stroke-linejoin:round;stroke-miterlimit:1.5;">
    <rect id="modernweb" x="0.16" y="0" width="512" height="512" style="fill:none;"/>
    <path d="M114.916,49.386l282.636,21.656l49.755,242.844l-120.849,146.573l-251.172,-104.5l39.63,-306.573Z" style="fill:none;stroke:black;stroke-width:6.5px;"/>
    <path d="M199.911,90.372l186.114,65.474l-10.296,172.226l-107.65,76.77l-150.037,-115.501l81.869,-198.969Z" style="fill:none;stroke:black;stroke-width:4px;"/>
    <path d="M366.586,291.484l-117.243,56.22l-75.462,-85.058l14.391,-85.942l123.744,-16.094l54.57,130.874Z" style="fill:none;stroke:black;stroke-width:6.5px;"/>
    <path d="M291.48,206.848l9.813,52.346l-41.652,20.839l-32.477,-14.805l6.751,-50.664l57.565,-7.716Z" style="fill:none;stroke:black;stroke-width:4.5px;"/>
    <path d="M57.802,22.6l144.975,68.578l-12.937,85.424l47.706,38.231l63.255,41.982" style="fill:none;stroke:black;stroke-width:4px;"/>
    <path d="M356.778,489.874l-29.582,-31.649l-61.529,-56.561l97.727,-109.517l-62.98,-36.407" style="fill:none;stroke:black;stroke-width:6.5px;"/>
    <path d="M17.507,367.067l57.029,-11.087l41.756,-68.417l54.89,-25.891l58.113,0.405l62.941,-52.234" style="fill:none;stroke:black;stroke-width:6.5px;"/>
    <path d="M436.827,22.774l-37.439,48.71l-13.996,81.594l-74.542,8.713l-21.257,46.855" style="fill:none;stroke:black;stroke-width:6.5px;"/>
    <path d="M493.369,322.445l-42.182,-9.158l-74.694,14.65l-11.631,-36.294" style="fill:none;stroke:black;stroke-width:4px;"/>
    <path d="M248.375,346.374l12.358,-67.445" style="fill:none;stroke:black;stroke-width:6.5px;"/>
</svg>
