<?xml version="1.0" encoding="UTF-8" standalone="no"?>
<!DOCTYPE svg PUBLIC "-//W3C//DTD SVG 1.1//EN" "http://www.w3.org/Graphics/SVG/1.1/DTD/svg11.dtd">
<svg width="100%" height="100%" viewBox="0 0 1 2" version="1.1" xmlns="http://www.w3.org/2000/svg" xmlns:xlink="http://www.w3.org/1999/xlink" xml:space="preserve" xmlns:serif="http://www.serif.com/" style="fill-rule:evenodd;clip-rule:evenodd;stroke-linecap:round;stroke-linejoin:round;stroke-miterlimit:1.5;">
    <rect id="toucher" x="0" y="0.12" width="1" height="1" style="fill:none;"/>
    <clipPath id="_clip1">
        <rect x="0" y="0.12" width="1" height="1"/>
    </clipPath>
    <g clip-path="url(#_clip1)">
        <path d="M0.655,0.622C0.655,0.539 0.588,0.471 0.505,0.471C0.422,0.471 0.355,0.539 0.355,0.622L0.355,1.425C0.355,1.508 0.422,1.576 0.505,1.576C0.588,1.576 0.655,1.508 0.655,1.425L0.655,0.622Z" style="fill:none;stroke:rgb(255,0,0);stroke-width:0.05px;"/>
        <path d="M0.431,0.704L0.431,0.625C0.431,0.584 0.464,0.551 0.505,0.551C0.546,0.551 0.579,0.584 0.579,0.625L0.579,0.704L0.431,0.704Z" style="fill:none;stroke:rgb(255,0,0);stroke-width:0.05px;"/>
        <path d="M0.253,0.935C0.164,0.863 0.108,0.753 0.108,0.629C0.108,0.412 0.284,0.235 0.502,0.235C0.72,0.235 0.896,0.412 0.896,0.629C0.896,0.746 0.845,0.851 0.764,0.924" style="fill:none;stroke:rgb(255,0,0);stroke-width:0.05px;"/>
    </g>
</svg>
