<?xml version="1.0" encoding="UTF-8" standalone="no"?>
<!DOCTYPE svg PUBLIC "-//W3C//DTD SVG 1.1//EN" "http://www.w3.org/Graphics/SVG/1.1/DTD/svg11.dtd">
<svg width="100%" height="100%" viewBox="0 0 1 1" version="1.1" xmlns="http://www.w3.org/2000/svg" xmlns:xlink="http://www.w3.org/1999/xlink" xml:space="preserve" xmlns:serif="http://www.serif.com/" style="fill-rule:evenodd;clip-rule:evenodd;stroke-linejoin:round;stroke-miterlimit:2;">
    <rect id="separator-1px" x="0" y="0" width="1" height="1" style="fill:none;"/>
    <clipPath id="_clip1">
        <rect x="0" y="0" width="1" height="1"/>
    </clipPath>
    <g clip-path="url(#_clip1)">
        <path id="left" d="M0.871,0.516l-0.118,-0.103l-0.092,0.09l-0.057,-0.01l0.057,0.072l0.076,-0.049l0.132,0.071l0.131,-0.154l-0.129,0.083Z" style="fill-rule:nonzero;"/>
        <path id="right" d="M0.396,0.493l-0.057,0.01l-0.092,-0.09l-0.117,0.103l-0.13,-0.083l0.132,0.154l0.132,-0.071l0.075,0.049l0.057,-0.072Z" style="fill-rule:nonzero;"/>
        <path id="circle" d="M0.493,0.579c0.043,0 0.078,-0.035 0.078,-0.079c0,-0.044 -0.035,-0.079 -0.078,-0.079c-0.043,-0 -0.078,0.035 -0.078,0.079c-0,0.044 0.035,0.079 0.078,0.079" style="fill-rule:nonzero;"/>
    </g>
</svg>
